<svg width="252" height="26" viewBox="0 0 252 26" fill="none" xmlns="http://www.w3.org/2000/svg">
<rect width="6.8678" height="1.71695" transform="matrix(-0.718931 0.695081 0.718931 0.695081 4.9375 19.6533)" fill="#C283F3"/>
<path fill-rule="evenodd" clip-rule="evenodd" d="M12.0969 22C7.53041 22 3.99692 18.3229 3.99692 14C3.99692 9.67715 7.53041 6 12.0969 6C16.6634 6 20.1969 9.67715 20.1969 14C20.1969 18.3229 16.6634 22 12.0969 22ZM12.0969 24C6.57408 24 2.09692 19.5228 2.09692 14C2.09692 8.47715 6.57408 4 12.0969 4C17.6198 4 22.0969 8.47715 22.0969 14C22.0969 19.5228 17.6198 24 12.0969 24Z" fill="#C283F3"/>
<rect x="33.0969" y="25" width="218" height="1" fill="#C283F3"/>
<path d="M42.4524 19H40.9583V7.47754H34.3577V19H32.8635V6.15039H42.4524V19ZM54.0891 14.1748C54.0891 15.7451 53.6936 16.9727 52.9026 17.8574C52.1116 18.7363 51.0188 19.1758 49.6243 19.1758C48.7629 19.1758 47.9983 18.9736 47.3303 18.5693C46.6624 18.165 46.1467 17.585 45.7834 16.8291C45.4202 16.0732 45.2385 15.1885 45.2385 14.1748C45.2385 12.6045 45.6311 11.3828 46.4163 10.5098C47.2014 9.63086 48.2913 9.19141 49.6858 9.19141C51.0334 9.19141 52.1028 9.63965 52.8938 10.5361C53.6907 11.4326 54.0891 12.6455 54.0891 14.1748ZM46.7502 14.1748C46.7502 15.4053 46.9963 16.3428 47.4885 16.9873C47.9807 17.6318 48.7043 17.9541 49.6594 17.9541C50.6145 17.9541 51.3381 17.6348 51.8303 16.9961C52.3284 16.3516 52.5774 15.4111 52.5774 14.1748C52.5774 12.9502 52.3284 12.0215 51.8303 11.3887C51.3381 10.75 50.6086 10.4307 49.6418 10.4307C48.6868 10.4307 47.9661 10.7441 47.4797 11.3711C46.9934 11.998 46.7502 12.9326 46.7502 14.1748ZM58.0266 9.36719V15.4756L57.9651 17.0752L57.9387 17.5762L63.1506 9.36719H64.97V19H63.6077V13.1113L63.634 11.9512L63.678 10.8086L58.4749 19H56.6555V9.36719H58.0266ZM71.9133 19.1758C70.5188 19.1758 69.4377 18.748 68.6702 17.8926C67.9084 17.0312 67.5276 15.8154 67.5276 14.2451C67.5276 12.6338 67.9143 11.3887 68.6877 10.5098C69.467 9.63086 70.5745 9.19141 72.01 9.19141C72.4729 9.19141 72.9358 9.24121 73.3987 9.34082C73.8616 9.44043 74.2249 9.55762 74.4885 9.69238L74.0403 10.9316C73.718 10.8027 73.3665 10.6973 72.9856 10.6152C72.6047 10.5273 72.2678 10.4834 71.9749 10.4834C70.0178 10.4834 69.0393 11.7314 69.0393 14.2275C69.0393 15.4111 69.2766 16.3193 69.7512 16.9521C70.2317 17.585 70.9407 17.9014 71.8782 17.9014C72.6809 17.9014 73.5042 17.7285 74.3479 17.3828V18.6748C73.7034 19.0088 72.8918 19.1758 71.9133 19.1758ZM82.2581 9.36719H83.8577L79.7004 14.0166L84.2004 19H82.4954L78.1008 14.1221V19H76.6418V9.36719H78.1008V14.0518L82.2581 9.36719ZM92.1282 19H90.6692V9.36719H98.7551V19H97.2786V10.6328H92.1282V19ZM110.163 14.1748C110.163 15.7451 109.768 16.9727 108.977 17.8574C108.186 18.7363 107.093 19.1758 105.698 19.1758C104.837 19.1758 104.073 18.9736 103.405 18.5693C102.737 18.165 102.221 17.585 101.858 16.8291C101.494 16.0732 101.313 15.1885 101.313 14.1748C101.313 12.6045 101.705 11.3828 102.49 10.5098C103.276 9.63086 104.365 9.19141 105.76 9.19141C107.108 9.19141 108.177 9.63965 108.968 10.5361C109.765 11.4326 110.163 12.6455 110.163 14.1748ZM102.824 14.1748C102.824 15.4053 103.071 16.3428 103.563 16.9873C104.055 17.6318 104.779 17.9541 105.734 17.9541C106.689 17.9541 107.412 17.6348 107.905 16.9961C108.403 16.3516 108.652 15.4111 108.652 14.1748C108.652 12.9502 108.403 12.0215 107.905 11.3887C107.412 10.75 106.683 10.4307 105.716 10.4307C104.761 10.4307 104.04 10.7441 103.554 11.3711C103.068 11.998 102.824 12.9326 102.824 14.1748ZM121.255 19.1758C119.861 19.1758 118.78 18.748 118.012 17.8926C117.25 17.0312 116.869 15.8154 116.869 14.2451C116.869 12.6338 117.256 11.3887 118.03 10.5098C118.809 9.63086 119.916 9.19141 121.352 9.19141C121.815 9.19141 122.278 9.24121 122.74 9.34082C123.203 9.44043 123.567 9.55762 123.83 9.69238L123.382 10.9316C123.06 10.8027 122.708 10.6973 122.327 10.6152C121.947 10.5273 121.61 10.4834 121.317 10.4834C119.36 10.4834 118.381 11.7314 118.381 14.2275C118.381 15.4111 118.618 16.3193 119.093 16.9521C119.573 17.585 120.282 17.9014 121.22 17.9014C122.023 17.9014 122.846 17.7285 123.69 17.3828V18.6748C123.045 19.0088 122.234 19.1758 121.255 19.1758ZM131.907 19L131.617 17.6289H131.547C131.067 18.2324 130.586 18.6426 130.106 18.8594C129.631 19.0703 129.036 19.1758 128.322 19.1758C127.366 19.1758 126.616 18.9297 126.072 18.4375C125.532 17.9453 125.263 17.2451 125.263 16.3369C125.263 14.3916 126.819 13.3721 129.93 13.2783L131.565 13.2256V12.6279C131.565 11.8721 131.401 11.3154 131.073 10.958C130.75 10.5947 130.232 10.4131 129.517 10.4131C128.714 10.4131 127.806 10.6592 126.792 11.1514L126.344 10.0352C126.819 9.77734 127.337 9.5752 127.9 9.42871C128.468 9.28223 129.036 9.20898 129.605 9.20898C130.753 9.20898 131.603 9.46387 132.154 9.97363C132.71 10.4834 132.989 11.3008 132.989 12.4258V19H131.907ZM128.612 17.9717C129.52 17.9717 130.232 17.7227 130.747 17.2246C131.269 16.7266 131.53 16.0293 131.53 15.1328V14.2627L130.071 14.3242C128.91 14.3652 128.073 14.5469 127.557 14.8691C127.047 15.1855 126.792 15.6807 126.792 16.3545C126.792 16.8818 126.95 17.2832 127.267 17.5586C127.589 17.834 128.037 17.9717 128.612 17.9717ZM137.374 9.36719V15.4756L137.313 17.0752L137.286 17.5762L142.498 9.36719H144.318V19H142.955V13.1113L142.982 11.9512L143.026 10.8086L137.823 19H136.003V9.36719H137.374ZM140.125 8.09277C139.041 8.09277 138.25 7.88477 137.752 7.46875C137.254 7.04688 136.976 6.35547 136.917 5.39453H138.288C138.341 6.00391 138.499 6.42871 138.763 6.66895C139.032 6.90918 139.498 7.0293 140.16 7.0293C140.764 7.0293 141.209 6.90039 141.496 6.64258C141.789 6.38477 141.968 5.96875 142.032 5.39453H143.412C143.342 6.32031 143.046 7.00293 142.525 7.44238C142.003 7.87598 141.203 8.09277 140.125 8.09277ZM153.906 10.6152H150.778V19H149.319V10.6152H146.225V9.36719H153.906V10.6152ZM154.284 9.36719H155.849L157.958 14.8604C158.421 16.1143 158.708 17.0195 158.82 17.5762H158.89C158.966 17.2773 159.124 16.7676 159.365 16.0469C159.611 15.3203 160.407 13.0938 161.755 9.36719H163.32L159.18 20.3359C158.77 21.4199 158.289 22.1875 157.739 22.6387C157.194 23.0957 156.523 23.3242 155.726 23.3242C155.281 23.3242 154.841 23.2744 154.407 23.1748V22.0059C154.73 22.0762 155.09 22.1113 155.489 22.1113C156.49 22.1113 157.205 21.5488 157.633 20.4238L158.169 19.0527L154.284 9.36719Z" fill="white" fill-opacity="0.85"/>
</svg>
